<svg xmlns="http://www.w3.org/2000/svg" viewBox="0 0 24 24" fill="none" stroke="currentColor" stroke-width="2" stroke-linecap="round" stroke-linejoin="round">
  <path d="M5.01333 9C5.36667 7.18 5.94667 5.82 6.76 4.92C7.13333 4.51333 7.60667 4.24 8.18 4.1C8.58667 4.02667 8.88667 4.14667 9.08 4.46667C9.20667 4.73333 9.2 5.04 9.06667 5.38667C8.96 5.58667 8.76667 5.74667 8.48667 5.86667C7.96667 6.10667 7.57333 6.46667 7.30667 6.94667C6.78 7.85333 6.45333 8.79333 6.32667 9.76667C6.24667 10.3 6.2 10.8333 6.18667 11.3667V12.0667C6.2 13.0333 6.28667 13.8667 6.44667 14.5667C6.64 15.4067 6.94 16.2 7.34667 16.9467C7.61333 17.4 7.98667 17.7467 8.46667 17.9867C8.73333 18.1 8.90667 18.2667 8.98667 18.4867C9.09333 18.7267 9.06667 18.9467 8.90667 19.1467C8.77333 19.3267 8.58667 19.4133 8.34667 19.4067C8.20667 19.3933 8.06667 19.3533 7.92667 19.2867C7.54 19.0667 7.22 18.7533 6.96667 18.3467C6.29333 17.3533 5.83333 16.2533 5.58667 15.0467C5.42667 14.32 5.34 13.5333 5.33333 12.6867C5.33333 12.5133 5.33333 12.3333 5.33333 12.1533V11.9067C5.33333 11.65 5.34667 11.4 5.37333 11.1533L5.01333 9Z"/>
  <path d="M18.6468 9C18.2935 7.18 17.7135 5.82 16.9001 4.92C16.5268 4.51333 16.0535 4.24 15.4801 4.1C15.0735 4.02667 14.7735 4.14667 14.5801 4.46667C14.4535 4.73333 14.4601 5.04 14.5935 5.38667C14.7001 5.58667 14.8935 5.74667 15.1735 5.86667C15.6935 6.10667 16.0868 6.46667 16.3535 6.94667C16.8801 7.85333 17.2068 8.79333 17.3335 9.76667C17.4135 10.3 17.4601 10.8333 17.4735 11.3667V12.0667C17.4601 13.0333 17.3735 13.8667 17.2135 14.5667C17.0201 15.4067 16.7201 16.2 16.3135 16.9467C16.0468 17.4 15.6735 17.7467 15.1935 17.9867C14.9268 18.1 14.7535 18.2667 14.6735 18.4867C14.5668 18.7267 14.5935 18.9467 14.7535 19.1467C14.8868 19.3267 15.0735 19.4133 15.3135 19.4067C15.4535 19.3933 15.5935 19.3533 15.7335 19.2867C16.1201 19.0667 16.4401 18.7533 16.6935 18.3467C17.3668 17.3533 17.8268 16.2533 18.0735 15.0467C18.2335 14.32 18.3201 13.5333 18.3268 12.6867C18.3268 12.5133 18.3268 12.3333 18.3268 12.1533V11.9067C18.3268 11.65 18.3135 11.4 18.2868 11.1533L18.6468 9Z"/>
  <path d="M12.0535 8.23333L11.0268 8.38667L9.20012 9.46667L8.67346 10.92C8.56679 11.2533 8.47346 11.5933 8.39346 11.94C8.32012 12.2333 8.25346 12.5267 8.19346 12.82C8.14012 13.06 8.09346 13.3 8.05346 13.54L8.00012 14.6867C8.08012 14.86 8.15346 15.0267 8.22012 15.1867L9.85346 16.7733L10.3068 16.86L11.5068 17.1L12.0735 17.2C11.9135 17.1333 11.7868 17.04 11.6935 16.92C11.6001 16.7933 11.5468 16.6533 11.5335 16.5C11.5201 16.3733 11.5468 16.2467 11.6135 16.12C11.6801 16 11.8068 15.8867 11.9935 15.78C12.2868 15.6333 12.5268 15.4267 12.7135 15.16C13.0001 14.78 13.1601 14.3667 13.1935 13.92C13.2068 13.68 13.1935 13.44 13.1535 13.2C13.1201 12.94 13.0601 12.6933 12.9735 12.46L12.6801 11.8L12.1801 11.06C11.9535 10.74 11.8268 10.3933 11.8001 10.0267C11.7868 9.84 11.7935 9.65333 11.8201 9.46667C11.8535 9.28 11.9068 9.1 11.9801 8.92C12.0601 8.72667 12.1535 8.56 12.2601 8.42C12.3668 8.28 12.4735 8.17333 12.5801 8.1C12.4401 8.11333 12.2868 8.16 12.1201 8.24C12.0868 8.25333 12.0668 8.24667 12.0535 8.23333Z"/>
  <path d="M12.0268 16.1067L11.0001 16.26L9.17345 17.34L8.64678 18.7933C8.54011 19.1267 8.44678 19.4667 8.36678 19.8133C8.29345 20.1067 8.22678 20.4 8.16678 20.6933C8.11345 20.9333 8.06678 21.1733 8.02678 21.4133L7.97345 22.56C8.05345 22.7333 8.12678 22.9 8.19345 23.06L9.82678 24.6467L10.2801 24.7333L11.4801 24.9733L12.0468 25.0733C11.8868 25.0067 11.7601 24.9133 11.6668 24.7933C11.5735 24.6667 11.5201 24.5267 11.5068 24.3733C11.4935 24.2467 11.5201 24.12 11.5868 23.9933C11.6535 23.8733 11.7801 23.76 11.9668 23.6533C12.2601 23.5067 12.5001 23.3 12.6868 23.0333C12.9735 22.6533 13.1335 22.24 13.1668 21.7933C13.1801 21.5533 13.1668 21.3133 13.1268 21.0733C13.0935 20.8133 13.0335 20.5667 12.9468 20.3333L12.6535 19.6733L12.1535 18.9333C11.9268 18.6133 11.8001 18.2667 11.7735 17.9C11.7601 17.7133 11.7668 17.5267 11.7935 17.34C11.8268 17.1533 11.8801 16.9733 11.9535 16.7933C12.0335 16.6 12.1268 16.4333 12.2335 16.2933C12.3401 16.1533 12.4468 16.0467 12.5535 15.9733C12.4135 15.9867 12.2601 16.0333 12.0935 16.1133C12.0601 16.1267 12.0401 16.12 12.0268 16.1067Z"/>
</svg> 