<svg xmlns="http://www.w3.org/2000/svg" viewBox="0 0 24 24" fill="none" stroke="currentColor" stroke-width="2" stroke-linecap="round" stroke-linejoin="round">
  <path d="M4.22046 16.8L5.04046 9.2L9.36046 4.32C9.38706 4.29067 9.42144 4.27169 9.45882 4.2661C9.4962 4.26052 9.53427 4.26862 9.56656 4.2891C9.59885 4.30958 9.62348 4.34128 9.63643 4.37814C9.64939 4.41501 9.64992 4.45526 9.63796 4.492L7.36046 11.6L4.22046 16.8Z"/>
  <path d="M4.22046 16.8002L4.27046 16.7202L16.4905 9.60016C16.5256 9.57772 16.5667 9.56762 16.6078 9.57124C16.6489 9.57485 16.6877 9.59202 16.7187 9.62016C16.7496 9.64831 16.7714 9.68605 16.7809 9.72776C16.7904 9.76946 16.7872 9.81279 16.7705 9.85216L14.0005 16.8702L4.22046 16.8002Z"/>
  <path d="M14.0003 16.8701L4.22031 16.8201L9.24031 21.7701C9.27218 21.8017 9.31299 21.8249 9.35754 21.8371C9.4021 21.8494 9.44875 21.8503 9.4937 21.8398C9.53866 21.8293 9.58031 21.8078 9.61337 21.7777C9.64643 21.7475 9.67 21.7095 9.68131 21.6671L10.8003 16.8701H14.0003Z"/>
</svg> 