<svg xmlns="http://www.w3.org/2000/svg" viewBox="0 0 24 24" fill="none" stroke="currentColor" stroke-width="2" stroke-linecap="round" stroke-linejoin="round">
  <path d="M11.9468 1.99994C11.9468 1.99994 5.39678 7.73994 5.39678 13.8199C5.39678 16.4599 6.36678 18.5599 7.93478 19.9199C8.70078 20.5999 9.58678 21.0399 10.3738 21.2799C10.9238 21.4479 11.5588 21.5789 11.9408 21.6159H11.9528C11.9788 21.6139 12.0228 21.6119 12.0228 21.6119L12.0288 21.6099H12.0488C12.0488 21.6099 12.1128 21.6059 12.1328 21.5999C12.4748 21.5679 13.0728 21.4279 13.5408 21.2799C14.4708 20.9779 15.3748 20.4919 16.1368 19.8559C17.7738 18.5039 18.7368 16.4659 18.7368 13.8199C18.7368 7.73994 12.1868 1.99994 12.1868 1.99994H11.9468Z"/>
  <path d="M12.0688 22.9999L12.0628 22.8919V22.5959L12.0588 22.5259V22.4939V22.4699L12.0508 22.4279V22.4159V22.3899L12.0448 22.3139L12.0408 22.2599L12.0388 22.2279L12.0288 22.1919V22.1859L12.0048 22.0399V22.0339L11.9968 21.9519V21.9459L11.9888 21.8399L11.9848 21.7599L11.9828 21.7039L11.9808 21.6219V21.6059H12.0468C12.0468 21.6059 12.0528 21.6059 12.0568 21.6079H12.0608H12.0708H12.0748C12.0748 21.6079 12.0788 21.6119 12.0788 21.6119L12.0688 22.9999Z"/>
</svg> 