<svg xmlns="http://www.w3.org/2000/svg" viewBox="0 0 24 24" fill="none" stroke="currentColor" stroke-width="2" stroke-linecap="round" stroke-linejoin="round">
  <path d="M12 21.8889C11.6295 21.8889 11.2716 21.8028 10.9432 21.6306L8.3963 20.1844C7.8921 19.9 8.0779 19.8139 8.2637 19.7528C8.7679 19.5806 8.8605 19.5444 9.4568 19.2333C9.5126 19.1972 9.5868 19.2111 9.6426 19.2472L11.6665 20.3978C11.7409 20.4339 11.8524 20.4339 11.9145 20.3978L19.4041 16.1639C19.4784 16.1278 19.5147 16.0417 19.5147 15.9556V7.48778C19.5147 7.40167 19.4784 7.31556 19.4041 7.26945L11.9268 3.03556C11.8524 2.99945 11.7409 2.99945 11.6665 3.03556L4.20135 7.26945C4.12704 7.31556 4.09077 7.40167 4.09077 7.48778V15.9556C4.09077 16.0417 4.12704 16.1278 4.20135 16.1639L6.55825 17.5028C7.78586 18.0944 8.55488 17.3417 8.55488 16.5889V8.29834C8.55488 8.17611 8.64661 8.08389 8.76576 8.08389H9.74883C9.86798 8.08389 9.95971 8.17 9.95971 8.29834V16.5889C9.95971 18.2972 9.0325 19.3306 7.41349 19.3306C6.93665 19.3306 6.55825 19.3306 5.50255 18.835L3.25293 17.5639C2.60879 17.2167 2.2 16.5056 2.2 15.7406V7.48778C2.2 6.72278 2.60879 6.01167 3.25293 5.66445L10.7425 1.43056C11.3746 1.10789 12.1805 1.10789 12.8125 1.43056L20.3021 5.66445C20.9463 6.01167 21.3551 6.72278 21.3551 7.48778V15.9556C21.3551 16.7206 20.9463 17.4317 20.3021 17.7789L12.8125 22.0128C12.4841 22.1722 12.1263 22.2583 11.7558 22.2583"/>
  <path d="M14.8268 15.5806C11.5369 15.5806 10.8422 14.2417 10.8422 13.1106C10.8422 12.9884 10.9339 12.8661 11.0531 12.8661H12.0609C12.1679 12.8661 12.2597 12.94 12.2597 13.0623C12.4454 14.0348 12.9496 14.5161 14.8268 14.5161C16.3082 14.5161 16.9897 14.1689 16.9897 13.2084C16.9897 12.6411 16.7929 12.2328 14.3732 11.9578C12.3366 11.7245 11.0531 11.2311 11.0531 9.58002C11.0531 8.04113 12.2843 7.04724 14.5647 7.04724C17.1301 7.04724 18.2647 7.97502 18.4135 9.87113C18.4135 9.93335 18.3895 9.99558 18.3458 10.0456C18.302 10.0945 18.2403 10.1211 18.1786 10.1211H17.1586C17.0638 10.1211 16.9721 10.0578 16.9478 9.96557C16.6552 8.92779 16.033 8.52446 14.5647 8.52446C12.9375 8.52446 12.5785 9.05168 12.5785 9.53501C12.5785 10.1089 12.9859 10.3056 14.3115 10.4939C15.6183 10.6823 18.2403 11.0417 18.2403 12.6656C18.2403 14.3367 16.9092 15.5806 14.8236 15.5806"/>
</svg> 