<svg xmlns="http://www.w3.org/2000/svg" viewBox="0 0 24 24" fill="none" stroke="currentColor" stroke-width="2" stroke-linecap="round" stroke-linejoin="round">
  <circle cx="12" cy="12" r="2.25"/>
  <path d="M12 9.75C14.0711 9.75 16.0795 10.1373 17.6834 10.7646C19.2873 11.392 20.25 12.2194 20.25 13.125C20.25 14.0306 19.2873 14.858 17.6834 15.4854C16.0795 16.1127 14.0711 16.5 12 16.5C9.92893 16.5 7.92048 16.1127 6.31658 15.4854C4.71267 14.858 3.75 14.0306 3.75 13.125C3.75 12.2194 4.71267 11.392 6.31658 10.7646C7.92048 10.1373 9.92893 9.75 12 9.75Z"/>
  <path d="M7.49824 11.25C8.48312 9.44191 9.5381 7.98486 10.4442 7.01356C11.3503 6.04227 12.0759 5.625 12.6703 5.625C13.2647 5.625 13.9902 6.04227 14.8963 7.01356C15.8024 7.98486 16.8574 9.44191 17.8423 11.25C16.8574 13.0581 15.8024 14.5151 14.8963 15.4864C13.9902 16.4577 13.2647 16.875 12.6703 16.875C12.0759 16.875 11.3503 16.4577 10.4442 15.4864C9.5381 14.5151 8.48312 13.0581 7.49824 11.25Z" transform="rotate(60 12 13.125)"/>
  <path d="M7.49824 11.25C8.48312 9.44191 9.5381 7.98486 10.4442 7.01356C11.3503 6.04227 12.0759 5.625 12.6703 5.625C13.2647 5.625 13.9902 6.04227 14.8963 7.01356C15.8024 7.98486 16.8574 9.44191 17.8423 11.25C16.8574 13.0581 15.8024 14.5151 14.8963 15.4864C13.9902 16.4577 13.2647 16.875 12.6703 16.875C12.0759 16.875 11.3503 16.4577 10.4442 15.4864C9.5381 14.5151 8.48312 13.0581 7.49824 11.25Z" transform="rotate(300 12 13.125)"/>
</svg> 