<svg xmlns="http://www.w3.org/2000/svg" width="24" height="24" viewBox="0 0 24 24" fill="none">
  <path d="M12.5 1.5H5C3.10051 1.5 1.5 3.10051 1.5 5V19C1.5 20.8995 3.10051 22.5 5 22.5H19C20.8995 22.5 22.5 20.8995 22.5 19V11.5" stroke="white" stroke-width="1.5" stroke-linecap="round"/>
  <path d="M18.5 5C19.6046 5 20.5 4.10457 20.5 3C20.5 1.89543 19.6046 1 18.5 1C17.3954 1 16.5 1.89543 16.5 3C16.5 4.10457 17.3954 5 18.5 5Z" fill="white" stroke="white" stroke-width="1.5" stroke-linecap="round" stroke-linejoin="round"/>
  <path d="M11.5 13C12.6046 13 13.5 12.1046 13.5 11C13.5 9.89543 12.6046 9 11.5 9C10.3954 9 9.5 9.89543 9.5 11C9.5 12.1046 10.3954 13 11.5 13Z" fill="white" stroke="white" stroke-width="1.5" stroke-linecap="round" stroke-linejoin="round"/>
  <path d="M5.5 21C6.60457 21 7.5 20.1046 7.5 19C7.5 17.8954 6.60457 17 5.5 17C4.39543 17 3.5 17.8954 3.5 19C3.5 20.1046 4.39543 21 5.5 21Z" fill="white" stroke="white" stroke-width="1.5" stroke-linecap="round" stroke-linejoin="round"/>
</svg> 