<svg xmlns="http://www.w3.org/2000/svg" width="24" height="24" viewBox="0 0 24 24" fill="none">
  <path d="M12.0012 6C9.60116 6 8.10116 7.2 7.50116 9.6C8.40116 8.4 9.45116 8.1 10.6512 8.7C11.3012 9.03137 11.7765 9.51823 12.3012 10.05C13.1512 10.9139 14.1012 11.9 16.5012 11.9C18.9012 11.9 20.4012 10.7 21.0012 8.3C20.1012 9.5 19.0512 9.8 17.8512 9.2C17.2012 8.86863 16.7258 8.38177 16.2012 7.85C15.3512 6.98613 14.4012 6 12.0012 6ZM7.50116 12C5.10116 12 3.60116 13.2 3.00116 15.6C3.90116 14.4 4.95116 14.1 6.15116 14.7C6.80116 15.0314 7.27651 15.5182 7.80116 16.05C8.65116 16.9139 9.60116 17.9 12.0012 17.9C14.4012 17.9 15.9012 16.7 16.5012 14.3C15.6012 15.5 14.5512 15.8 13.3512 15.2C12.7012 14.8686 12.2258 14.3818 11.7012 13.85C10.8512 12.9861 9.90116 12 7.50116 12Z" fill="#06B6D4"/>
</svg> 